<?xml version="1.0" encoding="UTF-8" standalone="no"?>
<svg
   xmlns:dc="http://purl.org/dc/elements/1.1/"
   xmlns:cc="http://creativecommons.org/ns#"
   xmlns:rdf="http://www.w3.org/1999/02/22-rdf-syntax-ns#"
   xmlns:svg="http://www.w3.org/2000/svg"
   xmlns="http://www.w3.org/2000/svg"
   xmlns:sodipodi="http://sodipodi.sourceforge.net/DTD/sodipodi-0.dtd"
   xmlns:inkscape="http://www.inkscape.org/namespaces/inkscape"
   inkscape:version="1.0 (4035a4fb49, 2020-05-01)"
   sodipodi:docname="csak_logo.svg"
   viewBox="0 0 202.54047 213.33293"
   height="213.33293"
   width="202.54047"
   xml:space="preserve"
   id="svg10"
   version="1.1"><metadata
     id="metadata16"><rdf:RDF><cc:Work
         rdf:about=""><dc:format>image/svg+xml</dc:format><dc:type
           rdf:resource="http://purl.org/dc/dcmitype/StillImage" /><dc:title></dc:title></cc:Work></rdf:RDF></metadata><defs
     id="defs14" /><sodipodi:namedview
     inkscape:current-layer="g53"
     inkscape:window-maximized="1"
     inkscape:window-y="-9"
     inkscape:window-x="2391"
     inkscape:cy="149.86769"
     inkscape:cx="474.57419"
     inkscape:zoom="1.323449"
     showgrid="false"
     id="namedview12"
     inkscape:window-height="1001"
     inkscape:window-width="1920"
     inkscape:pageshadow="2"
     inkscape:pageopacity="0"
     guidetolerance="10"
     gridtolerance="10"
     objecttolerance="10"
     borderopacity="1"
     bordercolor="#666666"
     pagecolor="#ffffff" /><g
     transform="matrix(1.3333333,0,0,-1.3333333,-104.09347,273.45599)"
     inkscape:label="harmony-logo-color (3)"
     inkscape:groupmode="layer"
     id="g18"><g
       id="g53"><path
         d="m 117.822,125.955 8.042,45.61 c 0.808,4.581 -1.36,6.971 -5.742,6.971 h -12.614 c -4.382,0 -7.392,-2.39 -8.2,-6.971 L 78.2365,52.0632 c -0.8077,-4.5809 1.3601,-6.9709 5.7418,-6.9709 h 12.6141 c 4.3816,0 7.3926,2.39 8.2006,6.9709 l 8.253,46.805"
         style="fill:#219c94;fill-opacity:1;fill-rule:nonzero;stroke:none"
         id="path20" /><path
         d="m 152.657,98.8682 -8.253,-46.805 c -0.808,-4.5809 1.161,-6.9709 5.543,-6.9709 h 13.012 c 4.382,0 7.193,2.39 8.001,6.9709 l 21.072,119.5018 c 0.807,4.581 -1.161,6.971 -5.543,6.971 h -13.012 c -4.382,0 -7.194,-2.39 -8.001,-6.971 l -8.043,-45.61"
         style="fill:#219c94;fill-opacity:1;fill-rule:nonzero;stroke:none"
         id="path22" /><path
         d="m 716.287,85.4072 c -0.378,0 -0.699,0.132 -0.964,0.397 -0.265,0.265 -0.397,0.586 -0.397,0.964 v 34.6958 c 0,0.302 -0.037,0.491 -0.114,0.567 l -23.584,41.159 -0.226,0.68 c 0,0.605 0.416,0.908 1.247,0.908 h 3.288 c 0.756,0 1.323,-0.303 1.701,-0.908 l 20.296,-35.489 c 0.076,-0.076 0.189,-0.114 0.34,-0.114 0.151,0 0.265,0.038 0.341,0.114 l 20.296,35.489 c 0.378,0.605 0.945,0.908 1.7,0.908 h 3.289 c 0.529,0 0.907,-0.152 1.133,-0.454 0.227,-0.303 0.189,-0.681 -0.114,-1.134 l -23.584,-41.159 c -0.075,-0.076 -0.113,-0.265 -0.113,-0.567 V 86.7682 c 0,-0.378 -0.133,-0.699 -0.396,-0.964 -0.265,-0.265 -0.586,-0.397 -0.964,-0.397 z"
         style="fill:#ffffff;fill-opacity:1;fill-rule:nonzero;stroke:none"
         id="path34" /><path
         d="m 155.588,152.511 8.042,45.61 c 0.808,4.581 -1.36,6.971 -5.741,6.971 h -12.615 c -4.381,0 -7.392,-2.39 -8.2,-6.971 L 116.003,78.6192 c -0.808,-4.5809 1.36,-6.9709 5.742,-6.9709 h 12.614 c 4.382,0 7.392,2.39 8.2,6.9709 l 8.253,46.8048"
         style="fill:#51a433;fill-opacity:1;fill-rule:nonzero;stroke:none"
         id="path38" /><path
         d="m 190.424,125.424 -8.253,-46.8048 c -0.808,-4.5809 1.16,-6.9709 5.542,-6.9709 h 13.013 c 4.381,0 7.193,2.39 8.001,6.9709 l 21.071,119.5018 c 0.808,4.581 -1.161,6.971 -5.543,6.971 h -13.012 c -4.382,0 -7.193,-2.39 -8.001,-6.971 l -8.042,-45.61"
         style="fill:#51a433;fill-opacity:1;fill-rule:nonzero;stroke:none"
         id="path40" /></g></g></svg>
